<svg width="25" height="27" viewBox="0 0 25 27" fill="none" xmlns="http://www.w3.org/2000/svg">
<rect width="25" height="26.5" rx="4" fill="#8F00FF"/>
<path d="M11.9342 4.24564C12.0901 4.0874 12.2914 4 12.5 4C12.7086 4 12.9099 4.0874 13.0658 4.24564L20.7348 12.0354C20.8951 12.2094 20.9899 12.4478 20.9992 12.7003C21.0086 12.9527 20.9317 13.1994 20.7848 13.3883C20.6379 13.5771 20.4325 13.6933 20.212 13.7123C19.9915 13.7313 19.7732 13.6517 19.6032 13.4902L19.3169 13.201V20.5526C19.3169 21.069 19.1373 21.5644 18.8177 21.9296C18.4981 22.2948 18.0646 22.5 17.6126 22.5H7.38736C6.93537 22.5 6.5019 22.2948 6.18229 21.9296C5.86269 21.5644 5.68314 21.069 5.68314 20.5526V13.201L5.39683 13.4902C5.2268 13.6517 5.00849 13.7313 4.788 13.7123C4.56752 13.6933 4.36213 13.5771 4.21524 13.3883C4.06834 13.1994 3.99143 12.9527 4.00076 12.7003C4.01009 12.4478 4.10493 12.2094 4.26523 12.0354L11.9342 4.24564ZM7.38736 11.4677V20.5526H9.94368V15.6839C9.94368 15.4257 10.0335 15.178 10.1933 14.9954C10.3531 14.8128 10.5698 14.7102 10.7958 14.7102H14.2042C14.4302 14.7102 14.6469 14.8128 14.8067 14.9954C14.9665 15.178 15.0563 15.4257 15.0563 15.6839V20.5526H17.6126V11.4687L12.5 6.27585L7.38736 11.4677ZM13.3521 20.5526V16.6577H11.6479V20.5526H13.3521Z" fill="white"/>
</svg>
