<svg width="375" height="27" viewBox="0 0 375 27" fill="none" xmlns="http://www.w3.org/2000/svg">
<rect x="35" width="25" height="26.5" rx="4" fill="#8F00FF"/>
<path d="M46.9342 4.24564C47.0901 4.0874 47.2914 4 47.5 4C47.7086 4 47.9099 4.0874 48.0658 4.24564L55.7348 12.0354C55.8951 12.2094 55.9899 12.4478 55.9992 12.7003C56.0086 12.9527 55.9317 13.1994 55.7848 13.3883C55.6379 13.5771 55.4325 13.6933 55.212 13.7123C54.9915 13.7313 54.7732 13.6517 54.6032 13.4902L54.3169 13.201V20.5526C54.3169 21.069 54.1373 21.5644 53.8177 21.9296C53.4981 22.2948 53.0646 22.5 52.6126 22.5H42.3874C41.9354 22.5 41.5019 22.2948 41.1823 21.9296C40.8627 21.5644 40.6831 21.069 40.6831 20.5526V13.201L40.3968 13.4902C40.2268 13.6517 40.0085 13.7313 39.788 13.7123C39.5675 13.6933 39.3621 13.5771 39.2152 13.3883C39.0683 13.1994 38.9914 12.9527 39.0008 12.7003C39.0101 12.4478 39.1049 12.2094 39.2652 12.0354L46.9342 4.24564ZM42.3874 11.4677V20.5526H44.9437V15.6839C44.9437 15.4257 45.0335 15.178 45.1933 14.9954C45.3531 14.8128 45.5698 14.7102 45.7958 14.7102H49.2042C49.4302 14.7102 49.6469 14.8128 49.8067 14.9954C49.9665 15.178 50.0563 15.4257 50.0563 15.6839V20.5526H52.6126V11.4687L47.5 6.27585L42.3874 11.4677ZM48.3521 20.5526V16.6577H46.6479V20.5526H48.3521Z" fill="white"/>
<path d="M155.26 3.25H137.26C136.995 3.25 136.74 3.35536 136.553 3.54289C136.365 3.73043 136.26 3.98478 136.26 4.25V22.25C136.26 22.5152 136.365 22.7696 136.553 22.9571C136.74 23.1446 136.995 23.25 137.26 23.25H155.26C155.525 23.25 155.779 23.1446 155.967 22.9571C156.154 22.7696 156.26 22.5152 156.26 22.25V4.25C156.26 3.98478 156.154 3.73043 155.967 3.54289C155.779 3.35536 155.525 3.25 155.26 3.25ZM142.26 21.25H138.26V17.25H142.26V21.25ZM142.26 15.25H138.26V11.25H142.26V15.25ZM142.26 9.25H138.26V5.25H142.26V9.25ZM148.26 21.25H144.26V17.25H148.26V21.25ZM148.26 15.25H144.26V11.25H148.26V15.25ZM148.26 9.25H144.26V5.25H148.26V9.25ZM154.26 21.25H150.26V17.25H154.26V21.25ZM154.26 15.25H150.26V11.25H154.26V15.25ZM154.26 9.25H150.26V5.25H154.26V9.25Z" fill="black"/>
<path d="M232.52 6.84999C232.52 6.42565 232.707 6.01868 233.04 5.71863C233.374 5.41857 233.826 5.25 234.297 5.25H244.963C245.434 5.25 245.886 5.41857 246.22 5.71863C246.553 6.01868 246.74 6.42565 246.74 6.84999V20.4499C246.74 20.5969 246.695 20.741 246.61 20.8665C246.525 20.992 246.403 21.094 246.258 21.1613C246.113 21.2285 245.95 21.2585 245.787 21.2479C245.624 21.2373 245.468 21.1865 245.335 21.1011L239.63 17.4331L233.925 21.1011C233.792 21.1865 233.635 21.2373 233.472 21.2479C233.31 21.2585 233.147 21.2285 233.001 21.1613C232.856 21.094 232.735 20.992 232.65 20.8665C232.564 20.741 232.52 20.5969 232.52 20.4499V6.84999ZM244.963 6.84999H234.297V18.8955L239.113 15.7995C239.264 15.7027 239.445 15.6507 239.63 15.6507C239.815 15.6507 239.996 15.7027 240.146 15.7995L244.963 18.8947V6.84999Z" fill="#0D0D0D"/>
<path d="M331.5 4.85C330.498 4.85 329.537 5.2925 328.829 6.08015C328.12 6.8678 327.722 7.93609 327.722 9.05C327.722 10.1639 328.12 11.2322 328.829 12.0198C329.537 12.8075 330.498 13.25 331.5 13.25C332.502 13.25 333.463 12.8075 334.171 12.0198C334.88 11.2322 335.278 10.1639 335.278 9.05C335.278 7.93609 334.88 6.8678 334.171 6.08015C333.463 5.2925 332.502 4.85 331.5 4.85ZM325.833 9.05C325.833 7.37914 326.43 5.77671 327.493 4.59523C328.556 3.41375 329.997 2.75 331.5 2.75C333.003 2.75 334.444 3.41375 335.507 4.59523C336.57 5.77671 337.167 7.37914 337.167 9.05C337.167 10.7209 336.57 12.3233 335.507 13.5048C334.444 14.6863 333.003 15.35 331.5 15.35C329.997 15.35 328.556 14.6863 327.493 13.5048C326.43 12.3233 325.833 10.7209 325.833 9.05ZM327.722 19.55C326.971 19.55 326.25 19.8819 325.719 20.4726C325.187 21.0634 324.889 21.8646 324.889 22.7C324.889 22.9785 324.789 23.2455 324.612 23.4425C324.435 23.6394 324.195 23.75 323.944 23.75C323.694 23.75 323.454 23.6394 323.277 23.4425C323.1 23.2455 323 22.9785 323 22.7C323 21.3076 323.498 19.9723 324.383 18.9877C325.269 18.0031 326.47 17.45 327.722 17.45H335.278C336.53 17.45 337.731 18.0031 338.617 18.9877C339.503 19.9723 340 21.3076 340 22.7C340 22.9785 339.901 23.2455 339.723 23.4425C339.546 23.6394 339.306 23.75 339.056 23.75C338.805 23.75 338.565 23.6394 338.388 23.4425C338.211 23.2455 338.111 22.9785 338.111 22.7C338.111 21.8646 337.813 21.0634 337.281 20.4726C336.75 19.8819 336.029 19.55 335.278 19.55H327.722Z" fill="#0D0D0D"/>
</svg>
