<svg width="15" height="16" viewBox="0 0 15 16" fill="none" xmlns="http://www.w3.org/2000/svg">
<path d="M4.13518e-09 1.59999C4.13518e-09 1.17565 0.187281 0.768684 0.520643 0.468627C0.854006 0.16857 1.30614 0 1.77759 0H12.4431C12.9146 0 13.3667 0.16857 13.7001 0.468627C14.0334 0.768684 14.2207 1.17565 14.2207 1.59999V15.1999C14.2207 15.3469 14.1757 15.491 14.0907 15.6165C14.0057 15.742 13.8839 15.844 13.7388 15.9113C13.5936 15.9785 13.4306 16.0085 13.2678 15.9979C13.1049 15.9873 12.9484 15.9365 12.8155 15.8511L7.11035 12.1831L1.40518 15.8511C1.27228 15.9365 1.11581 15.9873 0.952949 15.9979C0.790085 16.0085 0.627122 15.9785 0.481944 15.9113C0.336767 15.844 0.214987 15.742 0.12997 15.6165C0.0449525 15.491 -1.57446e-05 15.3469 4.13518e-09 15.1999V1.59999ZM12.4431 1.59999H1.77759V13.6455L6.59396 10.5495C6.74466 10.4527 6.9252 10.4007 7.11035 10.4007C7.29551 10.4007 7.47604 10.4527 7.62674 10.5495L12.4431 13.6447V1.59999Z" fill="#0D0D0D"/>
</svg>
