<svg width="24" height="26" viewBox="0 0 24 26" fill="none" xmlns="http://www.w3.org/2000/svg">
<path d="M9.6059 2.60026C7.69517 2.60026 5.8627 3.42259 4.5116 4.88636C3.16051 6.35013 2.40148 8.33542 2.40148 10.4055C2.40148 12.4756 3.16051 14.4609 4.5116 15.9246C5.8627 17.3884 7.69517 18.2107 9.6059 18.2107C11.5166 18.2107 13.3491 17.3884 14.7002 15.9246C16.0513 14.4609 16.8103 12.4756 16.8103 10.4055C16.8103 8.33542 16.0513 6.35013 14.7002 4.88636C13.3491 3.42259 11.5166 2.60026 9.6059 2.60026ZM5.9336e-08 10.4055C0.000218926 8.74931 0.365286 7.11708 1.06486 5.64449C1.76444 4.17189 2.77832 2.90145 4.02224 1.93874C5.26616 0.976041 6.70419 0.34888 8.21683 0.109386C9.72947 -0.130109 11.273 0.0249779 12.7192 0.561758C14.1654 1.09854 15.4725 2.00151 16.5318 3.19563C17.5911 4.38974 18.372 5.84052 18.8097 7.42738C19.2474 9.01424 19.3291 10.6914 19.0482 12.3194C18.7673 13.9473 18.1318 15.4792 17.1946 16.7876L23.6629 23.7954C23.8817 24.0407 24.0027 24.3693 24 24.7104C23.9972 25.0515 23.8709 25.3778 23.6483 25.619C23.4257 25.8602 23.1245 25.997 22.8097 26C22.4949 26.0029 22.1916 25.8718 21.9651 25.6348L15.4967 18.627C14.0768 19.8213 12.376 20.5601 10.5878 20.7591C8.79962 20.9582 6.99573 20.6097 5.38128 19.7532C3.76684 18.8966 2.40663 17.5665 1.45532 15.914C0.504021 14.2616 -0.000199707 12.353 5.9336e-08 10.4055Z" fill="#0D0D0D"/>
</svg>
