<svg width="26" height="24" viewBox="0 0 26 24" fill="none" xmlns="http://www.w3.org/2000/svg">
<path d="M10.322 1.4997C10.5379 1.0566 10.9081 0.67713 11.3852 0.409938C11.8623 0.142745 12.4246 0 13 0C13.5754 0 14.1377 0.142745 14.6148 0.409938C15.0919 0.67713 15.4621 1.0566 15.678 1.4997C17.8139 1.98766 19.6979 3.0446 21.0407 4.50818C22.3836 5.97176 23.1108 7.76105 23.1109 9.60124V15.2371L25.7571 18.5343C25.9023 18.715 25.9856 18.925 25.9983 19.142C26.011 19.359 25.9525 19.5748 25.8292 19.7663C25.7058 19.9578 25.5221 20.118 25.2978 20.2296C25.0735 20.3412 24.8169 20.4001 24.5554 20.4001H18.0049C17.831 21.3997 17.2294 22.3138 16.3102 22.975C15.391 23.6361 14.2159 24 13 24C11.7841 24 10.609 23.6361 9.68982 22.975C8.77065 22.3138 8.169 21.3997 7.99508 20.4001H1.44464C1.18313 20.4001 0.926528 20.3412 0.702192 20.2296C0.477856 20.118 0.294207 19.9578 0.17084 19.7663C0.0474723 19.5748 -0.0109859 19.359 0.00170131 19.142C0.0143885 18.925 0.0977453 18.715 0.242879 18.5343L2.88906 15.2371V9.60124C2.88906 5.73285 6.03789 2.47399 10.322 1.4997ZM10.9576 20.4001C11.1068 20.7513 11.3834 21.0553 11.7493 21.2704C12.1152 21.4855 12.5525 21.601 13.0007 21.601C13.449 21.601 13.8862 21.4855 14.2521 21.2704C14.6181 21.0553 14.8947 20.7513 15.0439 20.4001H10.9561H10.9576ZM13 3.60187C11.0846 3.60187 9.24761 4.23395 7.8932 5.35905C6.5388 6.48415 5.7779 8.01011 5.7779 9.60124V15.6006C5.77796 15.8376 5.69352 16.0693 5.53523 16.2665L4.14426 18.0004H21.8543L20.4633 16.2665C20.3055 16.0692 20.2216 15.8375 20.2221 15.6006V9.60124C20.2221 8.01011 19.4612 6.48415 18.1068 5.35905C16.7524 4.23395 14.9154 3.60187 13 3.60187Z" fill="white"/>
</svg>
