<svg width="17" height="21" viewBox="0 0 17 21" fill="none" xmlns="http://www.w3.org/2000/svg">
<path d="M8.5 2.1C7.49807 2.1 6.53718 2.5425 5.82871 3.33015C5.12024 4.1178 4.72222 5.18609 4.72222 6.3C4.72222 7.41391 5.12024 8.4822 5.82871 9.26985C6.53718 10.0575 7.49807 10.5 8.5 10.5C9.50193 10.5 10.4628 10.0575 11.1713 9.26985C11.8798 8.4822 12.2778 7.41391 12.2778 6.3C12.2778 5.18609 11.8798 4.1178 11.1713 3.33015C10.4628 2.5425 9.50193 2.1 8.5 2.1ZM2.83333 6.3C2.83333 4.62914 3.43036 3.02671 4.49306 1.84523C5.55577 0.663748 6.99711 0 8.5 0C10.0029 0 11.4442 0.663748 12.5069 1.84523C13.5696 3.02671 14.1667 4.62914 14.1667 6.3C14.1667 7.97086 13.5696 9.57329 12.5069 10.7548C11.4442 11.9363 10.0029 12.6 8.5 12.6C6.99711 12.6 5.55577 11.9363 4.49306 10.7548C3.43036 9.57329 2.83333 7.97086 2.83333 6.3ZM4.72222 16.8C3.97078 16.8 3.25011 17.1319 2.71875 17.7226C2.1874 18.3134 1.88889 19.1146 1.88889 19.95C1.88889 20.2285 1.78938 20.4955 1.61227 20.6925C1.43515 20.8894 1.19493 21 0.944444 21C0.693962 21 0.453739 20.8894 0.276621 20.6925C0.0995036 20.4955 0 20.2285 0 19.95C0 18.5576 0.497518 17.2223 1.38311 16.2377C2.2687 15.2531 3.46981 14.7 4.72222 14.7H12.2778C13.5302 14.7 14.7313 15.2531 15.6169 16.2377C16.5025 17.2223 17 18.5576 17 19.95C17 20.2285 16.9005 20.4955 16.7234 20.6925C16.5463 20.8894 16.306 21 16.0556 21C15.8051 21 15.5648 20.8894 15.3877 20.6925C15.2106 20.4955 15.1111 20.2285 15.1111 19.95C15.1111 19.1146 14.8126 18.3134 14.2812 17.7226C13.7499 17.1319 13.0292 16.8 12.2778 16.8H4.72222Z" fill="#0D0D0D"/>
</svg>
